#!OML:ASF E:\emotionWalksFemale\Project 1\Capture day 1\Session 1\Female1.ASF
:FULLY-SPECIFIED
:DEGREES
1414
root 9.51965 15.6345 10.9048 173.768 -182.129 -181.267
lowerback 13.7324 4.03435 2.76584
upperback -4.09429 5.7758 -1.39442
thorax -11.7833 2.46546 -4.43241
lowerneck -7.32541 -7.16107 -9.15294
upperneck 13.1916 -9.55677 6.89805
head 5.96691 -4.65374 2.91074
rclavicle -4.51241e-014 -1.27222e-014
rhumerus 17.35 6.85143 -66.2759
rradius 94.1904
rwrist -27.5294
rhand 6.85362 -43.5162
rfingers 7.12502
rthumb -147.864 109.305
lclavicle -4.51241e-014 -1.27222e-014
lhumerus -73.8704 -5.03558 44.833
lradius 32.5491
lwrist -13.7949
lhand -5.66318 322.817
lfingers 7.12502
lthumb 20.1561 -8.20855
rfemur 17.7093 9.92399 34.724
rtibia 1.90833e-014
rfoot -6.37656 -23.949
rtoes 26.9208
lfemur -57.6042 -6.33674 -23.5168
ltibia 102.678
lfoot -19.9242 3.84374
ltoes -25.8438
1415
root 9.52679 15.6274 11.0487 173.771 -182.005 -181.068
lowerback 12.5937 4.04444 2.53721
upperback -3.42851 5.71448 -1.31724
thorax -10.3945 2.5227 -4.05363
lowerneck -7.86155 -7.09495 -9.10211
upperneck 12.7103 -9.36877 6.69276
head 5.87971 -4.5621 2.84167
rclavicle -1.0138e-014 -7.95139e-016
rhumerus 18.8635 6.57721 -66.1848
rradius 93.8301
rwrist -27.3163
rhand 6.94631 -43.4954
rfingers 7.12502
rthumb -147.775 109.344
lclavicle -1.0138e-014 -7.95139e-016
lhumerus -73.3105 -4.23404 44.6107
lradius 32.5584
lwrist -14.0736
lhand -5.45333 322.508
lfingers 7.12502
lthumb 20.3578 -8.53917
rfemur 18.3313 9.69101 34.5351
rtibia 5.08889e-014
rfoot -6.83385 -23.7318
rtoes 26.5933
lfemur -57.5122 -6.5682 -23.8503
ltibia 100.621
lfoot -20.4382 3.78524
ltoes -24.0905
1416
root 9.53051 15.6108 11.1732 173.917 -181.722 -181.174
lowerback 13.0656 4.10315 2.66612
upperback -3.82204 5.8381 -1.29002
thorax -11.0944 2.54094 -4.19286
lowerneck -7.55514 -7.01375 -9.20442
upperneck 12.8494 -9.25965 6.56819
head 5.86128 -4.52904 2.83794
rclavicle 1.09332e-015 1.31198e-014
rhumerus 18.6413 6.69539 -66.4416
rradius 93.7314
rwrist -27.1061
rhand 6.61322 -43.4326
rfingers 7.12502
rthumb -148.093 109.343
lclavicle 1.09332e-015 1.31198e-014
lhumerus -73.419 -4.49864 44.2503
lradius 32.4401
lwrist -14.2711
lhand -4.9269 322.852
lfingers 7.12502
lthumb 20.8637 -8.24984
rfemur 18.6879 9.61441 34.6775
rtibia -6.36111e-015
rfoot -7.1831 -23.5473
rtoes 27.0855
lfemur -57.7542 -6.46424 -23.7337
ltibia 98.5436
lfoot -20.4954 3.45883
ltoes -21.4595
1417
root 9.5309 15.5919 11.3013 173.998 -181.493 -181.332
lowerback 12.9984 4.14071 2.87805
upperback -3.80131 5.92452 -1.27965
thorax -11.0043 2.57224 -4.30894
lowerneck -7.45094 -6.93577 -9.20785
upperneck 12.5667 -9.15824 6.64313
head 5.75019 -4.47741 2.87756
rclavicle -1.78906e-015 1.74931e-014
rhumerus 19.1051 6.47506 -66.7884
rradius 93.5336
rwrist -27.283
rhand 6.76115 -43.5716
rfingers 7.12502
rthumb -147.952 109.232
lclavicle -1.78906e-015 1.74931e-014
lhumerus -73.0481 -4.48445 44.1137
lradius 32.3026
lwrist -14.0933
lhand -4.67029 323.372
lfingers 7.12502
lthumb 21.1102 -7.757
rfemur 19.1224 9.46257 34.8923
rtibia -1.59028e-014
rfoot -7.1827 -23.3372
rtoes 26.5827
lfemur -57.7983 -6.40639 -23.5269
ltibia 96.3396
lfoot -20.5498 3.61524
ltoes -20.8657
1418
root 9.52942 15.5818 11.4344 174.087 -181.296 -181.397
lowerback 12.9818 4.13689 2.84338
upperback -3.79676 5.91924 -1.21785
thorax -11 2.57484 -4.21982
lowerneck -7.84207 -6.80537 -9.44507
upperneck 12.6691 -8.97874 7.04274
head 5.86332 -4.36606 3.04442
rclavicle 1.73937e-014 -3.57812e-015
rhumerus 19.6246 6.4993 -67.0829
rradius 93.3194
rwrist -27.4212
rhand 6.77758 -43.8315
rfingers 7.12502
rthumb -147.936 108.975
lclavicle 1.73937e-014 -3.57812e-015
lhumerus -73.0466 -4.60666 44.466
lradius 32.6551
lwrist -13.5161
lhand -4.57732 323.773
lfingers 7.12502
lthumb 21.1995 -7.36667
rfemur 19.5466 9.29103 35.0031
rtibia -5.88403e-014
rfoot -6.96225 -23.1577
rtoes 24.43
lfemur -57.6424 -6.37538 -23.408
ltibia 93.9835
lfoot -20.6828 3.82211
ltoes -20.7093
1419
root 9.52993 15.5721 11.5718 174.225 -181.084 -181.394
lowerback 12.6252 4.09941 2.77434
upperback -3.66053 5.85174 -1.14286
thorax -10.6569 2.56687 -4.04297
lowerneck -8.26619 -6.75235 -9.14088
upperneck 12.5965 -8.83636 6.57162
head 5.86572 -4.30472 2.84806
rclavicle -6.16232e-015 -3.97569e-015
rhumerus 20.1697 6.76836 -67.2793
rradius 93.1627
rwrist -27.4275
rhand 6.37051 -43.9019
rfingers 7.12502
rthumb -148.324 108.828
lclavicle -6.16232e-015 -3.97569e-015
lhumerus -72.9168 -4.12102 44.5047
lradius 32.9743
lwrist -13.369
lhand -4.41644 324.062
lfingers 7.12502
lthumb 21.354 -7.09488
rfemur 19.9465 9.15548 35.0222
rtibia 0
rfoot -6.85777 -22.8905
rtoes 23.414
lfemur -57.331 -6.33363 -23.3756
ltibia 91.4916
lfoot -20.7114 4.21466
ltoes -21.459
1420
root 9.53339 15.5536 11.7036 174.313 -180.876 -181.538
lowerback 12.4838 4.08744 2.98776
upperback -3.69491 5.87176 -1.11127
thorax -10.5928 2.56633 -4.1197
lowerneck -7.96217 -6.70581 -9.03509
upperneck 12.3519 -8.78886 6.48504
head 5.72461 -4.28916 2.82017
rclavicle 4.52235e-015 5.96354e-015
rhumerus 20.1368 7.01502 -67.629
rradius 93.1451
rwrist -27.4293
rhand 6.19463 -44
rfingers 7.12502
rthumb -148.491 108.697
lclavicle 4.52235e-015 5.96354e-015
lhumerus -72.6393 -3.74915 44.2284
lradius 32.9953
lwrist -13.4657
lhand -4.20187 324.377
lfingers 7.12502
lthumb 21.5601 -6.80329
rfemur 20.4056 8.99082 35.1875
rtibia -3.02153e-014
rfoot -6.97181 -22.5331
rtoes 23.7279
lfemur -56.9166 -6.25887 -23.1723
ltibia 88.9327
lfoot -20.6286 4.56524
ltoes -22.0209
